<svg id="1dc42564-b2de-4a2b-a69a-a3ccf9ed66e9" data-name="Lager 1" xmlns="http://www.w3.org/2000/svg" viewBox="0 0 100 100">
  <defs>
    <style>
      .e2e7624a-984b-4b54-862e-11094125bf87 {
        fill: #f4f4f4;
      }
    </style>
  </defs>
  <title>css</title>
  <g id="7a34b26f-b107-4900-94a0-8d4e203ddb4f" data-name="0AHicQ">
    <path class="e2e7624a-984b-4b54-862e-11094125bf87" d="M50.72,85H49.28a10.15,10.15,0,0,1-2.44-.79c-6.11-1.72-12.21-3.44-18.33-5.1A2.15,2.15,0,0,1,26.66,77c-0.47-5.8-1-11.59-1.49-17.38-0.71-8.07-1.45-15.92-2.16-24C22.58,30.65,22.19,26,21.78,21H78.22c-0.4,5-.79,9.56-1.21,14.45-0.81,9.31-1.65,18.5-2.48,27.8-0.41,4.61-.83,9.15-1.2,13.76a2,2,0,0,1-1.84,2.13c-1.07.21-2.12,0.55-3.17,0.85C62.45,81.66,56.58,83,50.72,85ZM50,32.57c-5.39,0-10.79,0-16.18,0-1.11,0-1.58.36-1.45,1.51s0.21,2.47.27,3.71a1.23,1.23,0,0,0,1.46,1.33Q40.41,39,46.7,39c4,0,8,0,12-.06a1.25,1.25,0,0,1,1.46,1.58c-0.12,1.33-.25,2.66-0.28,4s-0.55,1.92-2,1.93c-6.44,0-12.88.15-19.32,0.23-1.15,0-2.29.06-3.44,0s-1.73.53-1.56,1.74c0.1,0.76.19,1.52,0.25,2.28,0.2,2.47.25,2.53,2.73,2.52,6.92,0,13.84,0,20.76,0,1.59,0,1.77.24,1.61,1.75-0.24,2.18-.54,4.36-0.7,6.55a2.07,2.07,0,0,1-1.79,2.19c-1.81.41-3.59,1-5.4,1.4a4.12,4.12,0,0,1-1.83.08c-2-.48-4.06-1.07-6.09-1.6a1.61,1.61,0,0,1-1.32-1.63c-0.07-1.09-.24-2.18-0.29-3.28a1.21,1.21,0,0,0-1.43-1.35q-2.15,0-4.3,0c-1,0-1.34.38-1.23,1.4,0.29,2.66.55,5.32,0.69,8a2.27,2.27,0,0,0,1.91,2.42c4,1,7.91,2.19,11.87,3.25a3.67,3.67,0,0,0,1.81,0c4-1.07,8-2.23,12-3.29a2.21,2.21,0,0,0,1.84-2.32c0.28-3.9.67-7.79,1-11.69,0.61-6.79,1.24-13.59,1.82-20.38,0.16-1.88-.07-2.08-1.94-2.08H50Z"/>
  </g>
</svg>
