<svg xmlns="http://www.w3.org/2000/svg" width="300" height="300" version="1.0" viewBox="0 0 225 225"><path d="M106.5 2.2c-4.5 1.6-9.3 5.5-11.2 9.1-.9 1.8-1.9 6-2.2 9.5l-.6 6.3-22.4 13C50 51.8 47.5 52.9 46.1 51.6c-5.1-4.6-14-5.8-20.6-2.7C9.6 56.3 9.9 78.3 26 85l3 1.2v52.6l-3 1.2c-7.5 3.1-12.1 9.9-12.1 17.8-.1 8.5 3.9 14.7 11.6 18.3 6.6 3.1 15.5 1.9 20.6-2.7 1.4-1.3 3.9-.2 24 11.5l22.4 13 .6 6.3c.9 10.4 5.4 16.1 14.7 18.9 7.8 2.3 18.1-2.1 21.9-9.4.9-1.8 1.9-6 2.2-9.5l.6-6.3 22.4-13c20.1-11.7 22.6-12.8 24-11.5 5.1 4.6 14 5.8 20.6 2.7 7.8-3.6 11.5-9.5 11.5-18.2 0-8.2-4.4-14.7-12-17.9l-3-1.2V86.2l3-1.2c7.6-3.2 12-9.7 12-17.9 0-8.7-3.7-14.6-11.5-18.2-6.6-3.1-15.5-1.9-20.6 2.7-1.4 1.3-3.9.2-24-11.5l-22.4-13-.6-6.3c-.7-7.5-2.7-11.8-7.1-15.1-6-4.4-12.2-5.6-18.3-3.5zm-7.9 33.6c-.3.5-13.6 23.5-29.6 51.3-16 27.7-29.5 50.8-30.1 51.4-.5.5-.9-9-.9-25.8V86l3.3-1.4c7-3 12.1-11.6 11.5-19.3l-.3-4.4L75 48c21.3-12.3 24.8-14.1 23.6-12.2zm52.5 12.8 21.7 12.5-.5 3.8c-1 7.5 4.4 16.8 11.4 19.8L187 86v26.7c0 16.8-.4 26.3-.9 25.8-.6-.6-14.1-23.7-30.1-51.4-16-27.8-29.4-50.9-29.7-51.4-1.1-1.8 2.7.2 24.8 12.9zm-2.8 43.7c27.1 47 29.8 52 28.4 53.5-.8.9-2.2 3.2-3.1 5l-1.7 3.2H53.1l-1.7-3.3c-.9-1.7-2.3-4-3.1-4.9-1.4-1.6 1.1-6.3 27.7-52.5 16.1-27.9 29.7-51.3 30.1-51.9.5-.6 3.4-1 6.6-.9l5.8.1 29.8 51.7zm24.2 71.6c-.6.5-11 6.6-23.2 13.6l-22.2 12.7-2.9-2c-6.8-4.9-16.6-4.9-23.5 0l-2.8 2-22.2-12.7c-12.2-7-22.6-13.1-23.1-13.6-.6-.5 24.8-.9 59.9-.9 35.1 0 60.5.4 60 .9z" stroke="#FFF" fill="#FFF" /></svg>