<svg id="90359de6-2377-40cb-8dde-9b77f72bb1a0" data-name="Lager 1" xmlns="http://www.w3.org/2000/svg" viewBox="0 0 100 100">
  <defs>
    <style>
      .\33 f224eb0-0e72-4cf6-ac80-880ec1cddc95 {
        fill: #f4f4f4;
      }
    </style>
  </defs>
  <title>html</title>
  <g id="aac2b134-a2a8-42d2-a189-66dfebdfba19" data-name="gK5lBU">
    <path class="3f224eb0-0e72-4cf6-ac80-880ec1cddc95" d="M50.78,20.77h24c2.23,0,2.86.63,2.69,2.87C76.74,33.11,76,42.56,75.26,52q-0.76,9.86-1.5,19.71a5.45,5.45,0,0,1-.25,1.93A3.42,3.42,0,0,1,72,75.42q-10,3.3-20.14,6.37a4.43,4.43,0,0,1-2.45-.05c-6.6-2-13.17-4.15-19.76-6.19a2.42,2.42,0,0,1-1.9-2.41q-1.21-15.8-2.47-31.59-0.71-9.09-1.42-18.17c-0.15-2,.46-2.6,2.49-2.6H50.78ZM67.92,32H33.43C34,39,34.48,46,35,52H59.21c-0.2,3-.36,5.51-0.61,8a1.65,1.65,0,0,1-.85,1c-2.1.64-4.21,1.31-6.33,1.87a2.51,2.51,0,0,1-1.22.06c-2.12-.56-4.22-1.18-6.35-1.7a0.9,0.9,0,0,1-.93-1.1c0-1.39,0-3.12,0-4.12H35.26c0.25,3,.53,6.36.72,9.57a1.52,1.52,0,0,0,1.39,1.53c4,1.23,8,2.5,12,3.69a4.44,4.44,0,0,0,2.41,0c3.89-1.17,7.72-2.54,11.62-3.65a2.36,2.36,0,0,0,1.94-2.54c0.22-3.69.55-7.22,0.82-10.91,0.19-2.54.35-5.68,0.54-7.68H42c-0.25-3-.47-5-0.72-8h26C67.52,36,67.71,35,67.92,32Z"/>
  </g>
</svg>
