<svg id="e58b1d56-f8c1-415d-be36-6e604ebb22bc" data-name="Lager 1" xmlns="http://www.w3.org/2000/svg" viewBox="0 0 100 100">
  <defs>
    <style>
      .\35 870e2e3-877c-41ef-9ee7-8bbf20563e11 {
        fill: #f4f4f4;
      }
    </style>
  </defs>
  <title>js</title>
  <path class="5870e2e3-877c-41ef-9ee7-8bbf20563e11" d="M19,20V81H81V20H19ZM52.88,67.23a7.74,7.74,0,0,1-3.08,6.64,8.82,8.82,0,0,1-5.11,1.61A9.82,9.82,0,0,1,36,70.7,2.36,2.36,0,0,0,36,70.07c1.51-.92,3-1.79,5-2.77V68H40.32a2,2,0,0,1,.94,1,3.39,3.39,0,0,0,2.92,1.41,4.11,4.11,0,0,0,1.15-.28c1.15-.36,1.2-1.44,1.2-3.26,0-6-.53-12-0.53-18V47h6.77s0,0.25,0,.33a5.63,5.63,0,0,1,.09.84C52.9,54.51,52.92,60.88,52.88,67.23Zm23,1.79q0,0.21-.1.41a7.61,7.61,0,0,1-.26.8,7.48,7.48,0,0,1-.34.76,7.4,7.4,0,0,1-.42.71L74.55,72a7.47,7.47,0,0,1-.83.93,7.66,7.66,0,0,1-.65.55,7.91,7.91,0,0,1-.72.48L72,74.19l-0.58.27a8.89,8.89,0,0,1-1,.36l-0.26.07c-0.27.07-.54,0.13-0.82,0.18a13.38,13.38,0,0,1-8.82-1,10.6,10.6,0,0,1-2.12-1.5,12.6,12.6,0,0,1-1.59-1.75,6.65,6.65,0,0,1-.41-0.63l-0.21-.35L56,69.5l4.7-2.73a9.24,9.24,0,0,0,2,2.26,5.45,5.45,0,0,0,1.38.81L64.39,70a5.41,5.41,0,0,0,1.71.23A7.93,7.93,0,0,0,68,70a4.35,4.35,0,0,0,.59-0.21,2.93,2.93,0,0,0,.9-0.61,2.44,2.44,0,0,0,.73-1.76,2.39,2.39,0,0,0,0-.32,2.64,2.64,0,0,0-1.07-1.72,7.79,7.79,0,0,0-.76-0.5c-0.52-.3-1.08-0.56-1.64-0.83l-0.83-.4-1.1-.53-0.56-.26a23.62,23.62,0,0,1-2.7-1.41,7.78,7.78,0,0,1-3.88-6.82,9.46,9.46,0,0,1,.23-2c0.71-3.2,3.18-5.28,6.89-5.82a9.88,9.88,0,0,1,5,.5A8.39,8.39,0,0,1,71,47.9a8.1,8.1,0,0,1,3.2,3.5l-2.11,1.39-0.79.51L70.28,54a18.59,18.59,0,0,0-3.6-2,2.59,2.59,0,0,0-2,.17l-0.2.12a2.44,2.44,0,0,0-.36.28,2.4,2.4,0,0,0-.42.53,2.33,2.33,0,0,0-.19.41,2.76,2.76,0,0,0-.15.95,2.4,2.4,0,0,0,.3,1.11,2.87,2.87,0,0,0,.84.93,3.88,3.88,0,0,0,.49.3c1.72,0.9,3.54,1.62,5.29,2.49l0.87,0.46q0.43,0.24.83,0.49a10.2,10.2,0,0,1,1.85,1.48A7.43,7.43,0,0,1,75,63.16a7.32,7.32,0,0,1,.61,1.39,9.27,9.27,0,0,1,.45,2.74A8.14,8.14,0,0,1,75.91,69Z"/>
</svg>
