<svg id="1ea45ff4-1f65-4047-b369-8b05c80dc488" data-name="Lager 1" xmlns="http://www.w3.org/2000/svg" viewBox="0 0 100 100">
  <defs>
    <style>
      .\36 c26758d-4189-464e-8d20-69486f8d5a6a {
        fill: #f4f4f4;
      }
    </style>
  </defs>
  <title>node</title>
  <g>
    <path class="6c26758d-4189-464e-8d20-69486f8d5a6a" d="M46,51.19V41.84a0.88,0.88,0,0,0-.28-0.89l-8-4.68a0.92,0.92,0,0,0-1,0l-7.67,4.68c-0.32.18-.09,0.52-0.09,0.89v9.36c0,0.37-.2.71,0.12,0.89L37,56.76a0.85,0.85,0,0,0,.93,0l7.82-4.68A0.86,0.86,0,0,0,46,51.19Z"/>
    <path class="6c26758d-4189-464e-8d20-69486f8d5a6a" d="M21.29,40.84l-8.2-4.68a1.12,1.12,0,0,0-1.08,0L4.21,40.84a0.86,0.86,0,0,0-.23.89s0.2,12.49.2,12.52c0,0.61.45,0.52,0.42,0.5l4.61-2.83A1.35,1.35,0,0,0,10,50.72V45.11a0.87,0.87,0,0,1,.27-0.89l1.88-1.15a0.92,0.92,0,0,1,1,0l2.68,1.15c0.32,0.18,1.2.52,1.2,0.89v5.61c0,0.37-.77.74-0.38,1l4.92,3A0.31,0.31,0,0,0,22,54.45V41.73A1.25,1.25,0,0,0,21.29,40.84Z"/>
    <path class="6c26758d-4189-464e-8d20-69486f8d5a6a" d="M95.1,40.95l-8.3-4.68a1.22,1.22,0,0,0-1.13,0L78,40.95c-0.32.18,0,.52,0,0.89v9.36c0,0.37-.33.71,0,0.89l7.84,4.68a0.8,0.8,0,0,0,.9,0L91.47,54a0.52,0.52,0,0,0,0-.89L83.2,48.39a0.37,0.37,0,0,1-.2-0.3V44.94a0.36,0.36,0,0,1,.18-0.3l2.73-1.57a0.35,0.35,0,0,1,.35,0l2.65,1.57a0.29,0.29,0,0,1,.09.3v1.9a0.58,0.58,0,0,0,.8.47l5.47-2.24A1.27,1.27,0,0,0,96,44.6V41.84A1.58,1.58,0,0,0,95.1,40.95Z"/>
    <path class="6c26758d-4189-464e-8d20-69486f8d5a6a" d="M86.21,44.81a0.17,0.17,0,0,0-.17,0l-1,.78a10.84,10.84,0,0,0,0,1.86l1.19,0.78c0.05,0,0,0,.09,0l0.87-.78a10.85,10.85,0,0,0,0-1.86Z"/>
    <path class="6c26758d-4189-464e-8d20-69486f8d5a6a" d="M69.79,26.93l-4.25-2.42c-0.36-.15-0.62,0-0.61.56L65,37.57a0.39,0.39,0,0,1-.49.42L62.44,36.8a1,1,0,0,0-1,0l-8.5,4.68a1.59,1.59,0,0,0-.91.89v9.36a1.59,1.59,0,0,0,.91.89l8.3,4.68a1.22,1.22,0,0,0,1.13,0l8.12-4.68A1.05,1.05,0,0,0,71,51.73V28.37C71,27.49,70.58,27.31,69.79,26.93ZM65,37.57c0-.21,0-0.14,0,0h0ZM64,48.29c0,0.13.17,0.25,0.06,0.31l-2.59,1.56a0.26,0.26,0,0,1-.3,0L58.32,48.6A0.56,0.56,0,0,1,58,48.29V45.16a0.62,0.62,0,0,1,.35-0.31l2.79-1.56a0.45,0.45,0,0,1,.4,0L64,44.85c0.11,0.06,0,.18,0,0.31v3.13Z"/>
    <path class="6c26758d-4189-464e-8d20-69486f8d5a6a" d="M58.38,61.14l-8.52-4.87a1.25,1.25,0,0,0-1.47,0l-7.21,4.4A2.13,2.13,0,0,0,40,62.24v9.36a2.18,2.18,0,0,0,1.22,1.56l7.06,4.38a2.11,2.11,0,0,0,1,.24,2,2,0,0,0,.94-0.24l8.24-4.73a1.61,1.61,0,0,0,.64-1.56L59,62.71A1.59,1.59,0,0,0,58.38,61.14ZM58,71.59a1,1,0,0,1-.43.22l-8.26,4.68a0.42,0.42,0,0,1-.33,0l-3.46-2a2.35,2.35,0,0,0,.62-0.36,2.17,2.17,0,0,0,.63-0.78A2.62,2.62,0,0,0,47,72.23v-9.6A2,2,0,0,0,46.86,62H45.61a3.11,3.11,0,0,0-.61.63v9.71a1.87,1.87,0,0,1,.12.63,1,1,0,0,1-.21.41,1.07,1.07,0,0,1-.38.22,1.38,1.38,0,0,1-.4.07H44l-3-1.84c-0.08,0,0-.13,0-0.22V62.24c0-.09-0.12-0.18,0-0.22l8-4.68a0.13,0.13,0,0,1,.09,0,0.19,0.19,0,0,1,.11,0L57.58,62a1,1,0,0,1,.42.22v9.36Z"/>
    <path class="6c26758d-4189-464e-8d20-69486f8d5a6a" d="M54.85,67a5.66,5.66,0,0,0-1.13-.48q-0.63-.19-1.27-0.36l-0.94-.27a4.68,4.68,0,0,1-.81-0.32,2,2,0,0,1-.57-0.42,0.85,0.85,0,0,1-.22-0.59,0.82,0.82,0,0,1,.18-0.53,1.26,1.26,0,0,1,.47-0.36,2.63,2.63,0,0,1,.66-0.19A4.55,4.55,0,0,1,52,63.47a2.86,2.86,0,0,1,1.48.32,1.11,1.11,0,0,1,.65.93,0.51,0.51,0,0,0,.11.29h1.39a0.56,0.56,0,0,0,0-.35A1.78,1.78,0,0,0,55.48,64a2.23,2.23,0,0,0-.62-0.81,3.22,3.22,0,0,0-1.13-.62A5.25,5.25,0,0,0,52,62.38a7,7,0,0,0-1.46.15,3.81,3.81,0,0,0-1.15.43,2.13,2.13,0,0,0-.74.7,1.76,1.76,0,0,0-.26,1,1.6,1.6,0,0,0,.31,1,2.65,2.65,0,0,0,.82.68,5.62,5.62,0,0,0,1.14.47l1.27,0.35,0.94,0.27a5.12,5.12,0,0,1,.81.31,1.78,1.78,0,0,1,.56.42,0.85,0.85,0,0,1,.21.58,1.15,1.15,0,0,1-.19.68,1.49,1.49,0,0,1-.51.45,2.54,2.54,0,0,1-.75.25,4.79,4.79,0,0,1-.89.08A2.93,2.93,0,0,1,51.14,70a2.39,2.39,0,0,1-.76-0.41A2,2,0,0,1,49.86,69a2.49,2.49,0,0,1-.22-0.79A0.22,0.22,0,0,0,49.54,68H48.16a0.21,0.21,0,0,0-.11.19,2.63,2.63,0,0,0,.37,1.21,3.4,3.4,0,0,0,.91,1A4.33,4.33,0,0,0,50.6,71a5.13,5.13,0,0,0,1.48.22,7.12,7.12,0,0,0,1.56-.16,3.93,3.93,0,0,0,1.23-.48,2.48,2.48,0,0,0,.81-0.8,2.06,2.06,0,0,0,.3-1.11,1.52,1.52,0,0,0-.31-1A2.72,2.72,0,0,0,54.85,67Z"/>
  </g>
</svg>
