<svg id="b652c8a0-9f56-4ace-bb2b-efe5e1d0d364" data-name="Lager 1" xmlns="http://www.w3.org/2000/svg" viewBox="0 0 100 100">
  <defs>
    <style>
      .\38 f9295b8-64d4-4844-ba66-d30db1e4f3b3 {
        fill: #f4f4f4;
      }
    </style>
  </defs>
  <title>sql</title>
  <g>
    <path class="8f9295b8-64d4-4844-ba66-d30db1e4f3b3" d="M38.07,46.65a3.83,3.83,0,0,0-.57-0.43,7,7,0,0,0-1-.53,8.74,8.74,0,0,0-1.29-.44,5.63,5.63,0,0,0-1.41-.18,3.16,3.16,0,0,0-1.9.47,1.55,1.55,0,0,0-.63,1.32,1.36,1.36,0,0,0,.23.82,2,2,0,0,0,.68.57,5.72,5.72,0,0,0,1.13.45q0.68,0.2,1.58.43,1.16,0.31,2.11.67a5.74,5.74,0,0,1,1.61.89,3.7,3.7,0,0,1,1,1.29A4.27,4.27,0,0,1,40,53.84,4.6,4.6,0,0,1,39.51,56a4,4,0,0,1-1.3,1.47,5.64,5.64,0,0,1-1.88.82,9.45,9.45,0,0,1-2.23.26A12,12,0,0,1,30.58,58a10.91,10.91,0,0,1-3.13-1.52l1.36-2.66a4.29,4.29,0,0,0,.73.53,11,11,0,0,0,1.24.65,9.62,9.62,0,0,0,1.59.55,7.17,7.17,0,0,0,1.79.22q2.55,0,2.55-1.63a1.34,1.34,0,0,0-.29-0.87,2.47,2.47,0,0,0-.83-0.63,8,8,0,0,0-1.3-.49l-1.7-.49a14.44,14.44,0,0,1-2-.68,5.2,5.2,0,0,1-1.4-.87,3.27,3.27,0,0,1-.84-1.16,4,4,0,0,1-.28-1.58,4.93,4.93,0,0,1,.45-2.15,4.34,4.34,0,0,1,1.24-1.57,5.63,5.63,0,0,1,1.85-1,7.64,7.64,0,0,1,2.26-.32,8.77,8.77,0,0,1,3.09.53,11.52,11.52,0,0,1,2.46,1.24Z"/>
    <path class="8f9295b8-64d4-4844-ba66-d30db1e4f3b3" d="M53.35,57.16a8.18,8.18,0,0,1-1.88.93,7.44,7.44,0,0,1-2.15.35,7.11,7.11,0,0,1-3.17-.67A8,8,0,0,1,43.72,56a8.07,8.07,0,0,1-1.58-2.57,8.2,8.2,0,0,1-.56-3,8,8,0,0,1,.59-3,8.4,8.4,0,0,1,1.63-2.57A7.8,7.8,0,0,1,46.28,43a7.34,7.34,0,0,1,3.11-.66,7,7,0,0,1,3.14.7A7.86,7.86,0,0,1,55,44.93a8.5,8.5,0,0,1,1.57,2.6,8.17,8.17,0,0,1,.56,3,8.08,8.08,0,0,1-.55,3A7.27,7.27,0,0,1,55,55.75L57.18,58H54.27Zm-4-1.4a4.21,4.21,0,0,0,1.13-.15,5.34,5.34,0,0,0,1-.64L49,52h2.91L53,53.48A5.38,5.38,0,0,0,53.73,52,5.75,5.75,0,0,0,54,50.37a6,6,0,0,0-.32-2,5.41,5.41,0,0,0-.92-1.69,4.49,4.49,0,0,0-1.45-1.18,4.14,4.14,0,0,0-1.94-.44,4.22,4.22,0,0,0-2,.46,4.36,4.36,0,0,0-1.45,1.22A5.57,5.57,0,0,0,45,48.5a6.42,6.42,0,0,0,0,3.93,5.31,5.31,0,0,0,.91,1.7,4.5,4.5,0,0,0,1.45,1.19A4.18,4.18,0,0,0,49.35,55.76Z"/>
    <path class="8f9295b8-64d4-4844-ba66-d30db1e4f3b3" d="M60,58V42h3V55h8v3H60Z"/>
  </g>
  <path class="8f9295b8-64d4-4844-ba66-d30db1e4f3b3" d="M49.8,84.13A34.13,34.13,0,1,1,83.93,50,34.17,34.17,0,0,1,49.8,84.13Zm0-64.75A30.61,30.61,0,1,0,80.41,50,30.65,30.65,0,0,0,49.8,19.39Z"/>
</svg>
