<svg xmlns="http://www.w3.org/2000/svg" width="682.667" height="682.667" version="1.0" viewBox="0 0 512 512"><path d="M296 1.1c-17.2 1.9-36.7 7.7-52.4 15.6-8.3 4.1-115.7 71.8-135.7 85.5-28.2 19.2-47.4 47.5-55.6 81.8-3.3 14.1-4.2 39.9-1.9 54 2.1 12.9 5.9 25.6 10.7 36.1l4.1 8.6-4.6 7.9c-8.4 14.6-14.4 33-16.7 51-1.5 12-.7 35.1 1.6 45.9 11.3 54.1 50.9 98.4 103.5 115.9 39.7 13.1 82.3 10.2 119-8.3 12.2-6.1 133.9-83.5 143.6-91.3 48.1-38.7 63.9-108.4 37.6-166.1l-3.5-7.7 5.6-10.8c6.6-12.8 10.9-24.7 13.9-38.5 3-13.6 3.2-42.7.5-55.7-5.6-26.6-16.3-48.4-34.9-70.5-21.2-25.2-53.1-44.1-86.1-50.9C328.5.2 311.6-.6 296 1.1zM340 61c23.7 6.9 45.6 24.1 57.4 45.2 8.2 14.8 12.3 34.6 10.6 51.2-.9 9.2-4.7 24.6-6 24.6-.5 0-5.3-3-10.7-6.7-11-7.5-25.7-14.8-38-18.9l-8.3-2.7v-6.6c0-15.8-12-27.5-28-27.4-3.6 0-8.1.6-10 1.5-1.9.8-30.7 18.9-64 40.2-39.1 25.1-61.9 40.3-64.6 43.1-9.5 10.1-8.2 27.7 2.8 37.1 7.7 6.4 20.5 8.7 28.9 5.1 2-.8 15.5-9 29.8-18.2 35.8-22.8 41.9-25.3 64.6-26.2 15.3-.6 27 1.4 39.8 6.7 28 11.6 50.1 38 56.3 67 2.1 9.8 1.8 27.8-.6 37.7-4.8 20.1-16.9 37.4-34.5 49.3-24 16.2-123.9 78.8-130.9 82.1-13.4 6.3-21.9 8.1-37.6 8.2-16.2.1-26.3-2.1-40.9-8.9-25.3-11.9-44.2-34.3-51.2-60.9-3-11.5-3-29.5 0-43 1.3-5.5 2.6-10.4 3.1-10.8.4-.5 5.6 2.4 11.6 6.4 11.8 7.8 24.1 14 37 18.5l8.2 2.8.4 7.1c.8 11.5 5.9 19.4 16 24.4 6.9 3.5 14.7 4.1 21.4 1.7 2.2-.7 15.4-8.7 29.4-17.6 14-9 40.4-25.8 58.5-37.3 18.2-11.5 35.1-22.5 37.6-24.3 5.2-3.8 9.6-11.1 10.5-17.6 1.3-9.7-4.6-20.8-14.3-26.5-6-3.5-17.2-4.4-23.4-1.9-2.3.9-15.3 8.7-28.8 17.3-13.5 8.6-27.5 17-31.1 18.6-24.8 11.2-56 10.6-80.5-1.6-34.6-17.2-55.5-54-51.4-90.5.5-4.8 1.9-11.9 3-15.7 4-13.6 14.4-29.7 24.9-38.5 4.5-3.7 122.2-79.6 133.5-86.1 6.3-3.5 17.1-7.6 25-9.4 9.4-2.2 34.9-1.3 44.5 1.5z" fill="#FFF"/></svg>