<svg xmlns="http://www.w3.org/2000/svg" width="300" height="300" version="1.0" viewBox="0 0 225 225"><path d="M53.1 49.4c-5.1 2.8-5 2.1-5.1 62.8 0 41.9.3 57.4 1.2 59.3 2.5 5.6 1.9 5.5 63.3 5.5s60.8.1 63.3-5.5c.9-1.9 1.2-17.4 1.2-59.1 0-61.3.1-60.7-5.5-63.2-4-1.8-115.1-1.6-118.4.2zM157 102.3l6.5 1.2.3 6.8c.2 3.7 0 6.7-.3 6.7-.4 0-1.5-.5-2.7-1.1-3.4-1.8-14-2.9-18-1.8-2.8.7-3.9 1.6-4.4 3.5-.8 3.3 1.5 5.8 9.1 9.6 7.4 3.8 15.1 10 17.2 14.1 1.1 2.2 1.4 4.7 1 9-.5 5.2-1 6.4-4.3 9.9-6.5 6.6-19.1 8.7-31.6 5.2l-5.8-1.7V149l2.4 1.5c3.4 2.3 14.4 4.3 18.8 3.5 4.2-.8 7.8-3.5 7.8-5.8 0-1.8-6.6-8.2-8.4-8.2-3.5 0-12.5-5.2-16.4-9.4-4-4.3-4.2-4.9-4.2-10.7 0-7 2-10.6 7.9-14.3 7.5-4.7 13.3-5.5 25.1-3.3zm-39 6.7v6h-18v51H86v-50.9l-8.7-.3-8.8-.3-.3-5.8-.3-5.7H118v6z" fill="#fff" /></svg>